<svg xmlns="http://www.w3.org/2000/svg" xmlns:xlink="http://www.w3.org/1999/xlink" id="body_1" preserveAspectRatio="xMinYMin meet" viewBox="0 0 793 1123"><defs><clipPath id="1"><path id="" clip-rule="evenodd" transform="matrix(1 0 0 1 0 0)" d="M0 842L0 0L0 0L595 0L595 0L595 842L595 842L0 842z" /></clipPath><clipPath id="2"><path id="" clip-rule="evenodd" transform="matrix(1 0 0 1 0 0)" d="M90 0L595 0L595 0L595 842L595 842L90 842z" /></clipPath><clipPath id="3"><path id="" clip-rule="evenodd" transform="matrix(1 0 0 1 0 0)" d="M96 91.5L108 91.5L108 91.5L108 96L108 96L96 96z" /></clipPath><clipPath id="4"><path id="" clip-rule="evenodd" transform="matrix(1 0 0 1 0 0)" d="M108 91.5L96 91.5L96 91.5L97.5 93L97.5 93L106.5 93z" /></clipPath><clipPath id="5"><path id="" clip-rule="evenodd" transform="matrix(1 0 0 1 0 0)" d="M108 96L108 91.5L108 91.5L106.5 93L106.5 93L106.5 94.5z" /></clipPath><clipPath id="6"><path id="" clip-rule="evenodd" transform="matrix(1 0 0 1 0 0)" d="M108 96L96 96L96 96L97.5 94.5L97.5 94.5L106.5 94.5z" /></clipPath><clipPath id="7"><path id="" clip-rule="evenodd" transform="matrix(1 0 0 1 0 0)" d="M96 96L96 91.5L96 91.5L97.5 93L97.5 93L97.5 94.5z" /></clipPath><clipPath id="8"><path id="" clip-rule="evenodd" transform="matrix(1 0 0 1 0 0)" d="M94 97.5L110 97.5L110 97.5L110 90L110 90L94 90z" /></clipPath></defs><g transform="matrix(1.3333334 0 0 1.3333333 0 0)"><g clip-path="url(#1)"><g clip-path="url(#2)"><path id="14" transform="matrix(1 0 0 -1 0 842)" d="M96 750.9388L167.6309 750.9388" stroke="#0000FF" stroke-width="0.6666667" stroke-linejoin="miter" fill="none" /><g clip-path="url(#3)"><path id="15" transform="matrix(1 0 0 -1 0 842)" d="M96 750.5L108 750.5L108 750.5L108 746L108 746L96 746z" stroke="none" fill="#F0F0F0" fill-rule="evenodd" /></g><g clip-path="url(#4)"><path id="16" transform="matrix(1 0 0 -1 0 842)" d="M96 749.75L108 749.75" stroke="#A9A9A9" stroke-width="1.5" stroke-linejoin="miter" fill="none" /></g><g clip-path="url(#5)"><path id="17" transform="matrix(1 0 0 -1 0 842)" d="M107.25 750.5L107.25 746" stroke="#A9A9A9" stroke-width="1.5" stroke-linejoin="miter" fill="none" /></g><g clip-path="url(#6)"><path id="18" transform="matrix(1 0 0 -1 0 842)" d="M96 746.75L108 746.75" stroke="#A9A9A9" stroke-width="1.5" stroke-linejoin="miter" fill="none" /></g><g clip-path="url(#7)"><path id="19" transform="matrix(1 0 0 -1 0 842)" d="M96.75 750.5L96.75 746" stroke="#A9A9A9" stroke-width="1.5" stroke-linejoin="miter" fill="none" /></g><path id="25" transform="matrix(1 0 0 -1 0 842)" d="M126 709.9558L155.3262 709.9558" stroke="#0000FF" stroke-width="0.6666667" stroke-linejoin="miter" fill="none" /><path id="32" transform="matrix(1 0 0 -1 0 842)" d="M126 696.4558L156 696.4558" stroke="#0000FF" stroke-width="0.6666667" stroke-linejoin="miter" fill="none" /><path id="42" transform="matrix(1 0 0 -1 0 842)" d="M126 682.9558L173.6602 682.9558" stroke="#0000FF" stroke-width="0.6666667" stroke-linejoin="miter" fill="none" /><path id="93" transform="matrix(1 0 0 -1 0 842)" d="M96 602.4104L168.9844 602.4104" stroke="#0000FF" stroke-width="0.5" stroke-linejoin="miter" fill="none" /><path id="257" transform="matrix(1 0 0 -1 0 842)" d="M96 521.3504L174.249 521.3504" stroke="#0000FF" stroke-width="0.5" stroke-linejoin="miter" fill="none" /><path id="383" transform="matrix(1 0 0 -1 0 842)" d="M96 453.7904L139.0049 453.7904" stroke="#0000FF" stroke-width="0.5" stroke-linejoin="miter" fill="none" /><path id="520" transform="matrix(1 0 0 -1 0 842)" d="M96 386.2304L131.5781 386.2304" stroke="#0000FF" stroke-width="0.5" stroke-linejoin="miter" fill="none" /><path id="668" transform="matrix(1 0 0 -1 0 842)" d="M96 318.6704L168.0747 318.6704" stroke="#0000FF" stroke-width="0.5" stroke-linejoin="miter" fill="none" /><path id="972" transform="matrix(1 0 0 -1 0 842)" d="M126 168.74261L155.8184 168.74261" stroke="#0000FF" stroke-width="0.6666667" stroke-linejoin="miter" fill="none" /><path id="981" transform="matrix(1 0 0 -1 0 842)" d="M126 155.24261L162.6562 155.24261" stroke="#0000FF" stroke-width="0.6666667" stroke-linejoin="miter" fill="none" /></g><g clip-path="url(#8)"><path id="1036" transform="matrix(1 0 0 -1 0 842)" d="M94 744.5L110 744.5L110 744.5L110 752L110 752L94 752z" stroke="#000000" stroke-width="1" stroke-linejoin="miter" fill="none" /></g></g></g></svg>